<svg width="26" height="26" viewBox="0 0 26 26" fill="none" xmlns="http://www.w3.org/2000/svg">
<g clip-path="url(#clip0_8_7825)">
<path d="M7.66841 25.5134C7.1558 25.1724 6.70148 24.751 6.32291 24.2654C5.90649 23.7642 5.52067 23.2384 5.16754 22.6908C4.33885 21.4767 3.68898 20.1499 3.23785 18.751C2.69591 17.126 2.43347 15.5684 2.43347 14.045C2.43347 12.3436 2.80153 10.8583 3.52141 9.61033C4.05504 8.63488 4.83962 7.81972 5.79397 7.24921C6.71885 6.67475 7.78154 6.36037 8.8701 6.33921C9.25116 6.33921 9.66147 6.39446 10.097 6.50008C10.4098 6.58864 10.7908 6.72839 11.2564 6.90227C11.8487 7.13058 12.1745 7.27033 12.285 7.30446C12.632 7.43121 12.9237 7.48646 13.1528 7.48646C13.3267 7.48646 13.572 7.43121 13.8507 7.34671C14.0075 7.29146 14.3033 7.19396 14.7266 7.01277C15.1458 6.86002 15.4757 6.72921 15.7382 6.63171C16.1403 6.51308 16.5295 6.40339 16.8765 6.34814C17.2878 6.2833 17.7052 6.26612 18.1204 6.29696C18.84 6.34399 19.5487 6.49647 20.224 6.74952C21.3282 7.19396 22.2211 7.88783 22.8857 8.87421C22.6048 9.04735 22.3412 9.24705 22.0984 9.47058C21.57 9.93905 21.1199 10.489 20.7651 11.0996C20.3014 11.9341 20.061 12.8742 20.0672 13.8288C20.0842 15.0013 20.3849 16.034 20.9772 16.9269C21.4126 17.5887 21.9786 18.1546 22.6404 18.5901C22.9792 18.8184 23.2709 18.9752 23.5504 19.0808C23.4195 19.4871 23.2798 19.8803 23.1149 20.2703C22.7408 21.1449 22.2874 21.9834 21.7604 22.7753C21.2908 23.457 20.9227 23.9648 20.6432 24.3028C20.2077 24.8187 19.7885 25.2128 19.3652 25.4874C18.8996 25.7961 18.3495 25.9611 17.7905 25.9611C17.412 25.9756 17.0335 25.9298 16.6693 25.8254C16.3565 25.7198 16.0469 25.6052 15.7422 25.4744C15.4255 25.3289 15.0988 25.2059 14.7648 25.1063C13.939 24.8942 13.0733 24.8928 12.2468 25.1023C11.908 25.1998 11.5822 25.3135 11.2605 25.4533C10.8079 25.6434 10.5073 25.771 10.3334 25.8254C9.98647 25.927 9.62654 25.9903 9.26254 26.0115C8.69947 26.0115 8.1746 25.8506 7.6546 25.5248L7.66841 25.5134ZM15.0947 5.51371C14.3585 5.88177 13.6557 6.03858 12.9578 5.98739C12.8481 5.28458 12.9578 4.56552 13.2495 3.77821C13.4978 3.1112 13.8647 2.4946 14.3325 1.95821C14.8265 1.39354 15.426 0.930698 16.0973 0.595643C16.8123 0.22758 17.494 0.0285176 18.1456 -0.000732422C18.2301 0.735393 18.1456 1.45933 17.875 2.24177C17.6247 2.93344 17.2584 3.57746 16.792 4.14627C16.3159 4.71171 15.7317 5.17634 15.0735 5.51289L15.0947 5.51371Z" fill="#0D0D26"/>
</g>
<defs>
<clipPath id="clip0_8_7825">
<rect width="26" height="26" fill="white"/>
</clipPath>
</defs>
</svg>
